<?xml version="1.0" encoding="UTF-8"?><svg id="Layer_2" xmlns="http://www.w3.org/2000/svg" viewBox="0 0 109.25 111.34"><g id="Layer_1-2"><path fill="currentColor" d="M90.82,23.01C72.26,1.52,40.49.62,20.56,20.81c-8.81,8.92-13.74,19.63-14.27,32.32-1.3,31.4,25.13,56.05,56.54,51.55,23.86-4.62,40.82-25.73,40.33-50.13l3.27-2.33c.74-.53,2.52,1.86,2.83,2.75.02,22.28-12.07,41.71-31.97,51.39-27.76,12.68-59.8.27-72.26-27.55C-6.42,53.26,2.18,24.1,25.76,8.9c22.43-14.46,51.53-11.27,69.62,9.28l4.99-6.61c.43-.57,1.57-1.49,2.15-1.68.78-.25,2.25,1.28,2.81,2.04l2.8,26.69-26.54-6.14c2.32-4.46,5.01-6.57,9.23-9.47Z"/><path fill="currentColor" d="M60.1,81.26c-4.38.99-1.2,7.05-5.62,7.49s-1.83-6.54-5.48-7.09c-4.64-.7-10.15-3.8-11.89-9.06-.4-1.2.5-3.94,1.59-4.45,4.48-2.1,4.91,5.83,12.42,7.1l-.05-16.95c-6.27-1.21-11.25-4.77-12.76-10.63-2.17-8.43,4.5-15.75,12.6-17.25l.18-4.64c.04-1.08,2.75-2.58,4.05-2.1,1.41.52,2.22,4.42,2.19,6.2,8.38,1.99,14.15,7.57,11.49,11.53-2.81,4.18-6.69-3.23-11.56-4.59l.25,16.05c7.8,1.27,13.14,6.45,13.76,12.75.72,7.23-3.66,13.96-11.17,15.66ZM51.13,37.32c-3.18.03-6.1,3.1-6.1,6.27,0,3.5,2.18,5.87,6,6.8l.1-13.06ZM57.4,75c3.69-.49,6.86-3.54,6.67-7.46-.15-3.12-3.07-5.8-6.79-7.15l.12,14.61Z"/></g></svg>