<?xml version="1.0" encoding="UTF-8"?><svg id="Layer_2" xmlns="http://www.w3.org/2000/svg" viewBox="0 0 304.39 304.39"><defs><style>.cls-1{fill:#94bd9a;}.cls-2{fill:#313a3e;}.cls-3{fill:#f3c070;}.cls-4{fill:#d77d5f;}</style></defs><g id="Layer_1-2"><rect class="cls-1" width="304.39" height="304.39"/><path class="cls-2" d="M164.31,234.25l-20.72.2-1.6,11.92c-1.06,7.94-10.82,7.55-21.96,5.24l-.86-21.3-13.11-5.48c-4.82.58-10.46,4.22-14.83-.27-2.59-2.67-2.42-7.01-1.94-11.93-10.91,1.78-23.08-.33-25.06-7.64-2.43-8.95,9.58-13.86,14.27-22.17,1.17-5.35-1.34-11.93-1.52-17.23l-17.04-9.27c-3.41-1.85-5.01-6.21-4.37-9.72,1.97-10.79,20.55-6.75,26.81-13.64,3.57-3.92,4.95-10.44,7.42-15.04l-11.34-17.63c-3.48-5.41-2.53-12.78,3.16-15.28,6.96-3.06,13.09,1.85,19.9,2.2,5.24-.44,11.24-7.12,18.12-5.19l5.26-14.91c3.41-9.66,9.9-18.12,17.13-15.37,6.43,2.45,2.97,18.61,14.68,31.37l18.39,1.89c11.6-2.16,21.35-24.11,31.88-17.16,4.6,3.04,5.45,10.22,3.89,15.19l-6.3,20.1,9,11.46c12.45,2.37,24.72-3.92,29.33,2.78,5.9,8.57-6.45,19.37-16.51,27.49.98,4.94-.49,11.57,1.8,16.03,3.22,6.27,19.44,7.12,20.64,17.26,1.12,9.39-10.56,15.01-22.86,16.17,2.59,4.39,4.15,9.33,1.53,13.68-5.17,8.6-14.24,2.11-18.22,6.8-5.7,6.7-12.97,10.92-21,14.33-1,6.88,1.52,14.8-1.21,21.01-4.13,4.87-14.47,2.84-19.92,1.06-2.65-5.48-2.22-9.78-2.85-16.96Z"/><path class="cls-3" d="M182.9,246.55c-4.12.58-7.36.26-11.32-.47l-1.43-12.44,12.21-2.79.54,15.7Z"/><path class="cls-3" d="M135.71,245.99c-3.34,1.01-6.54,1.1-10.51.63l.03-14.98,11.26,2.57c.6,4.21.02,7.64-.78,11.78Z"/><path class="cls-4" d="M207.77,207.23c-18.12,22.21-45.91,22.91-73.88,20.17-9.86-.97-18.62-4.58-26.59-10.21l-8.62,2.88c-1.01.34-2.42.09-2.99-.24-2.98-1.7,3.08-9.35-.79-14.75-10.31,2.5-22.85,2.73-24.26-1.93-1.31-4.34,12.46-11.16,14.11-19.15l-1.52-22.28-18.91-9.75c-1.24-.64-2.63-2.23-2.53-3.36.52-5.76,19.48-3.98,25.51-11.98,3.32-4.41,5.95-10.89,7.92-16.14,2.35-6.25-3.92-13.75-8.37-17.55-3.22-2.75-6.04-9.95-3.09-11.82,5.78-3.46,12.61,2.81,17.16,3.2,7.11-2.42,12.84-7.02,19.91-6.68-1.57,2.07-1.22,3.99-.34,5.09.93,1.17,2.43,1.45,3.75,1.02,1.09-.35,2.86-2.67,2.25-3.78-2.37-4.29-.21-6.62.89-10.33,2.54-8.55,3.89-17.26,11.81-23.54l4.11,14.89c1.5,5.45,4.32,14.33,10.6,16.99,5.7,2.42,15.61,3.81,21.99,3.05,12.22-1.46,19.97-19.07,28.65-18.56,3.76,15.15-9.04,28.29-5.49,33.69,3,4.57,7.18,10.32,11.33,13.78,10.41,3.62,25.32-1.58,27.55,1.1,2.4,2.89-6.22,11.88-13.74,17.47-3.88,2.88-4.31,6.77-3.52,11.63l2.19,13.45c5.33,9.9,23.6,12.09,20.22,16.75-5.34,7.35-15.26,7.07-23.29,8.45-3.48,5.35,4.43,11.25,2.87,15.58s-8.97.72-14.88,2.84Z"/><path class="cls-2" d="M137.52,167.99c-.73-2.41.58-4.33,1.84-4.65,4.51-1.16,3.26,8.64,12.22,9.14,9.78.54,8.36-9.92,13.22-9.37,1.64.18,2.77,2.41,2.28,4.45-1.64,6.87-7.98,10.92-14.29,11.1-6.62.18-12.97-3.11-15.27-10.65Z"/><path class="cls-2" d="M131.05,153.34c-.23,5.42-3.71,9.22-8.38,8.65-4.56-.56-6.87-5.14-6.31-9.9s2.81-8.56,7.23-8.48c4.71.08,7.69,4.19,7.45,9.73Z"/><path class="cls-2" d="M187.44,153.45c-.21,5.12-3.96,8.84-7.77,8.52-4.7-.4-7.18-4.39-7.09-9.1s2.21-9.15,6.93-9.29,8.16,4.08,7.92,9.87Z"/><path class="cls-2" d="M126.16,196.09c-.56,2.54-2.55,8.64-5.36,7.88-4.67-1.26.7-10.83,2.82-11.16,1.44-.22,3.25.08,2.55,3.27Z"/><path class="cls-2" d="M186.43,195.63c1.51,2.02,2.32,3.44,2.34,5.18.02,1.55-.14,3.69-2.97,4.1-1.74-3.16-3.49-6.96-4.24-10.6-.36-1.74,2.03-2.49,2.76-1.52l2.12,2.84Z"/><circle class="cls-2" cx="112.02" cy="95.56" r="3.68"/><path class="cls-2" d="M111.92,122.67c-2.12-1.95-.56-7.1,2.46-6.69,2.85.39,2.63,3.22,1.78,5.1-.55,1.22-2.55,3.14-4.24,1.59Z"/><circle class="cls-2" cx="105.1" cy="127.66" r="3.07"/><rect class="cls-2" x="176.91" y="110.51" width="3.21" height="5.91" transform="translate(-1.76 2.82) rotate(-.9)"/><path class="cls-2" d="M183.26,121.78c-.49,1.66-3.15,1.12-4.05.09-.64-.73-1.73-2.36-.41-3.24,1.77-1.17,5.17.76,4.46,3.14Z"/><rect class="cls-2" x="129.41" y="204.56" width="3.84" height="3.88" transform="translate(-56.8 49.98) rotate(-17.78)"/><circle class="cls-2" cx="187.82" cy="115.67" r="1.83"/><path class="cls-2" d="M191.54,121.61c.37-1.14,1.83-1.07,2.39-.55.48.45.59,1.58.41,2.81-.1.65-1.24.92-2.27.51-.6-.24-.88-1.68-.53-2.77Z"/></g></svg>